<svg height="512" viewBox="0 0 64 64" width="512" xmlns="http://www.w3.org/2000/svg"><path d="m28.84 17.96a13 13 0 1 0 -18.84 13.57v23.47l4 6 8-6-2-3 2-3-3-3 3-3-1-3 1-3v-5.47a13 13 0 0 0 7-11.53 12.481 12.481 0 0 0 -.16-2.04zm-12.84 3.04a4 4 0 1 1 4-4 4 4 0 0 1 -4 4z" fill="#ff5023"/><path d="m56.9 12.1a13.972 13.972 0 0 0 -19.08-.65 13.847 13.847 0 0 0 -4.22 6.49 13.994 13.994 0 0 0 -.6 4.06v27a1 1 0 0 0 1 1h26a1 1 0 0 0 1-1v-27a13.994 13.994 0 0 0 -4.1-9.9zm-13.83 4.17a3.986 3.986 0 1 1 -.07.73 3.478 3.478 0 0 1 .07-.73z" fill="#ffda44"/><path d="m37 26h20v20h-20z" fill="#2488ff"/><path d="m13 33h2v21h-2z" fill="#cd2a00"/><path d="m37 26v17.813l13.571-17.813z" fill="#006df0"/><path d="m37 43.813v2.187h20v-20h-6.429z" fill="#2488ff"/><path d="m45.58 13.27a3.768 3.768 0 0 0 -.91.48 4.476 4.476 0 0 0 -.72.66.2.2 0 0 1 .05.09 1.029 1.029 0 0 1 -.43.45h-.01c-1.17.77-4.55 1.75-9.62 1.99-.77.04-1.59.06-2.44.06-1.01 0-1.97-.03-2.87-.08-4.86-.28-8.08-1.23-9.2-1.97h-.01c-.24-.16-.39-.31-.42-.44a.418.418 0 0 1 .04-.1 3.85 3.85 0 0 0 -1.32-1.01c-.1-.05-.2-.09-.3-.13a2.054 2.054 0 0 0 -.42 1.23c0 1.29 1.2 2.23 2.98 2.91a31.742 31.742 0 0 0 8.98 1.52c.9.05 1.76.07 2.54.07.57 0 1.19-.01 1.83-.04a33.169 33.169 0 0 0 9.69-1.55c1.78-.68 2.98-1.62 2.98-2.91a2.054 2.054 0 0 0 -.42-1.23zm-19.14-1a44.813 44.813 0 0 1 5.06-.27 45.663 45.663 0 0 1 5.43.31 9.076 9.076 0 0 1 .89-.86 13.687 13.687 0 0 1 1.13-.88 47.556 47.556 0 0 0 -7.45-.57 48.948 48.948 0 0 0 -6.68.45c.28.26.55.54.81.82a11.058 11.058 0 0 1 .81 1z" fill="#787680"/></svg>